<svg width="18" height="18" viewBox="0 0 18 18" fill="none" xmlns="http://www.w3.org/2000/svg">
<path d="M0 1.6C0 1.03995 0 0.759921 0.108993 0.546009C0.204867 0.357847 0.357847 0.204867 0.546009 0.108993C0.759921 0 1.03995 0 1.6 0H16.4C16.9601 0 17.2401 0 17.454 0.108993C17.6422 0.204867 17.7951 0.357847 17.891 0.546009C18 0.759921 18 1.03995 18 1.6V16.4C18 16.9601 18 17.2401 17.891 17.454C17.7951 17.6422 17.6422 17.7951 17.454 17.891C17.2401 18 16.9601 18 16.4 18H1.6C1.03995 18 0.759921 18 0.546009 17.891C0.357847 17.7951 0.204867 17.6422 0.108993 17.454C0 17.2401 0 16.9601 0 16.4V1.6Z" fill="white"/>
<path fill-rule="evenodd" clip-rule="evenodd" d="M6.55563 13.7864L3 9.66567L3.88875 8.63568L7 12.2414L14.1113 4L15 5.02999L7.445 13.7864C7.38663 13.8541 7.31731 13.9078 7.24101 13.9445C7.1647 13.9811 7.08291 14 7.00031 14C6.91772 14 6.83593 13.9811 6.75962 13.9445C6.68332 13.9078 6.614 13.8541 6.55563 13.7864Z" fill="#027DFA"/>
</svg>
